<?xml version="1.0" standalone="no"?>
<!DOCTYPE svg PUBLIC "-//W3C//DTD SVG 20010904//EN"
 "http://www.w3.org/TR/2001/REC-SVG-20010904/DTD/svg10.dtd">
<svg version="1.0" xmlns="http://www.w3.org/2000/svg"
 width="449.000000pt" height="449.000000pt" viewBox="0 0 449.000000 449.000000"
 preserveAspectRatio="xMidYMid meet">
<metadata>
Created by potrace 1.11, written by Peter Selinger 2001-2013
</metadata>
<g transform="translate(0.000000,449.000000) scale(0.100000,-0.100000)"
fill="#000000" stroke="none">
<path d="M1975 4274 c-440 -59 -857 -258 -1175 -561 -331 -315 -542 -708 -626
-1168 -24 -137 -30 -451 -10 -601 93 -705 530 -1309 1171 -1619 221 -107 309
-126 363 -80 41 34 46 71 37 287 l-7 180 -37 -6 c-20 -4 -85 -9 -146 -12 -183
-10 -313 30 -419 127 -43 39 -68 75 -115 168 -70 137 -124 210 -189 254 -122
85 -139 118 -72 138 108 33 274 -58 366 -199 55 -84 131 -160 196 -193 101
-51 239 -55 368 -11 l55 19 21 75 c22 80 58 150 93 182 29 26 26 36 -8 36 -17
0 -77 9 -134 20 -341 66 -558 211 -678 455 -76 154 -100 262 -106 480 -5 161
-3 190 16 265 26 104 88 233 147 306 l45 54 -16 53 c-34 112 -30 282 10 419
23 81 35 91 104 83 115 -14 259 -71 419 -167 l82 -50 88 21 c145 33 249 44
432 45 181 0 291 -11 442 -46 l87 -19 95 56 c126 75 256 130 355 150 125 26
129 23 168 -110 25 -85 25 -298 0 -377 l-17 -58 42 -52 c55 -68 110 -173 140
-268 21 -69 23 -92 22 -280 -1 -188 -3 -213 -27 -305 -102 -386 -366 -599
-822 -665 -49 -7 -92 -15 -94 -16 -2 -2 10 -19 26 -37 35 -40 68 -106 91 -180
13 -44 16 -112 16 -420 l1 -369 33 -29 c47 -42 95 -39 229 15 262 105 481 246
677 435 358 346 568 760 632 1246 22 164 15 465 -15 620 -39 208 -89 360 -181
550 -302 626 -920 1068 -1623 1160 -143 18 -413 18 -552 -1z"/>
<path d="M892 1314 c5 -25 35 -41 49 -27 18 18 3 43 -26 43 -19 0 -26 -5 -23
-16z"/>
<path d="M976 1245 c-7 -18 30 -58 47 -52 17 5 21 35 7 52 -16 19 -46 19 -54
0z"/>
<path d="M1060 1127 c0 -13 9 -32 20 -42 19 -17 22 -17 37 -2 24 24 3 67 -32
67 -20 0 -25 -5 -25 -23z"/>
<path d="M1166 1025 c-19 -19 -8 -48 25 -66 17 -9 25 -8 37 5 19 19 10 40 -25
63 -18 12 -23 12 -37 -2z"/>
<path d="M1300 915 c0 -31 40 -51 71 -35 39 21 15 60 -38 60 -29 0 -33 -3 -33
-25z"/>
<path d="M1646 927 c-30 -22 -16 -52 23 -52 41 0 62 25 42 49 -16 19 -41 20
-65 3z"/>
<path d="M1480 902 c-21 -17 -22 -19 -5 -36 22 -21 64 -17 79 7 9 15 7 21 -8
33 -26 19 -39 18 -66 -4z"/>
</g>
</svg>
